# xmcd
#
# Track frame offsets:
#	150
#	21639
#	39562
#	60931
#	80361
#	95426
#	116590
#	135957
#	158976
#	178868
#	179376
#	195701
#
# Disc length: 2902 seconds
#
# Revision: 2
# Processed by: cddbd v1.5.2PL0 Copyright (c) Steve Scherf et al.
# Submitted via: audiograbber 1.83.01
#
DISCID=9b0b540c
DTITLE=Lee Roy Parnell - Back To The Well
DYEAR=2006
DGENRE=Country
TTITLE0=Back To The Well
TTITLE1=Something Out Of Nothing
TTITLE2=Just Lucky That Way
TTITLE3=Old Soul
TTITLE4=Don't Water It Down
TTITLE5=Daddies And Daughters
TTITLE6=You Can't Lose 'em All
TTITLE7=Breaking The Chain
TTITLE8=The Hunger
TTITLE9=That's All There Is
TTITLE10=Saving Grace
TTITLE11=Cool Breeze
EXTD=
EXTT0=
EXTT1=
EXTT2=
EXTT3=
EXTT4=
EXTT5=
EXTT6=
EXTT7=
EXTT8=
EXTT9=
EXTT10=
EXTT11=
PLAYORDER=
